<svg xmlns="http://www.w3.org/2000/svg" width="7864" height="3848" viewBox="0 0 7864 3848">
  <defs>
    <style>
      .cls-1 {
        fill: #fec608;
      }

      .cls-1, .cls-2 {
        fill-rule: evenodd;
      }

      .cls-2, .cls-3 {
        fill: #099cc8;
      }
    </style>
  </defs>
  <path id="UKRAINE_Kopie_2" data-name="UKRAINE Kopie 2" class="cls-1" d="M4208.23,2966.88q37.125-16.11,58.87-51.75,21.75-35.61,21.75-95.62v-367.5q0-11.25-9.75-16.5a47.679,47.679,0,0,0-43.5,0q-9.75,5.25-9.75,16.5v367.5q0,54.75-26.62,80.62-26.64,25.875-73.88,25.88t-73.87-25.88q-26.64-25.875-26.63-80.62v-367.5q0-11.25-9.75-16.5a47.679,47.679,0,0,0-43.5,0q-9.75,5.25-9.75,16.5v367.5q0,60.015,21.75,95.62,21.75,35.64,58.5,51.75,36.735,16.14,82.5,16.13Q4171.1,2983.01,4208.23,2966.88Zm276.12,6q9.735-5.625,9.75-16.87V2790.26l56.25-69.75,164.25,246.75a27.494,27.494,0,0,0,10.5,9.75,26.725,26.725,0,0,0,12,3,37.038,37.038,0,0,0,18-4.5,40.593,40.593,0,0,0,13.5-11.63,25.417,25.417,0,0,0,5.25-15.37,19,19,0,0,0-3.75-11.25l-177.75-270,153-191.25a13.064,13.064,0,0,0,3.75-6.75,35.558,35.558,0,0,0,.75-6.75,25.51,25.51,0,0,0-5.25-15.38,45.1,45.1,0,0,0-13.5-12,32.309,32.309,0,0,0-16.5-4.87q-12,0-18.75,9l-201.75,261V2452.01q0-11.25-9.75-16.5a45.275,45.275,0,0,0-21.75-5.25,45.906,45.906,0,0,0-21.37,5.25q-10.125,5.25-10.13,16.5v504q0,11.25,10.13,16.87a43.358,43.358,0,0,0,21.37,5.63A42.763,42.763,0,0,0,4484.35,2972.88Zm691.38,2.63a41.669,41.669,0,0,0,14.25-12,25.815,25.815,0,0,0,5.62-15.75,18.3,18.3,0,0,0-.75-4.88,33.212,33.212,0,0,0-2.25-5.62l-111-210.75a164.822,164.822,0,0,0,57-23.63q25.485-16.875,40.13-46.87,14.625-29.985,14.62-75.75,0-56.985-22.5-89.63-22.5-32.625-60.37-46.5-37.89-13.86-83.63-13.87H4889.6a25.569,25.569,0,0,0-16.12,6.75,19.728,19.728,0,0,0-6.38,15v504q0,11.25,10.13,16.87a43.358,43.358,0,0,0,21.37,5.63,42.763,42.763,0,0,0,21.75-5.63q9.735-5.625,9.75-16.87v-220.5h87l112.5,219.75a78.923,78.923,0,0,0,12.38,17.25q7.11,7.5,16.12,7.5A37.745,37.745,0,0,0,5175.73,2975.51ZM4930.1,2487.26h96.75q46.5,0,75,22.12,28.5,22.14,28.5,75.38,0,53.265-28.5,75.75-28.515,22.5-75,22.5H4930.1V2487.26Zm391.38,487.87a17.353,17.353,0,0,0,8.62-10.87l32.25-111.75H5559.6l33.75,111.75q2.25,7.5,8.25,10.87a28.584,28.584,0,0,0,14.25,3.38,44.626,44.626,0,0,0,17.25-3.75,50.462,50.462,0,0,0,15.38-9.75q6.36-6,6.37-13.5a12.086,12.086,0,0,0-1.5-5.25l-153-498.75q-3-10.5-14.25-16.13a54.556,54.556,0,0,0-24.75-5.62,56.174,56.174,0,0,0-24,5.25q-11.25,5.25-14.25,16.5l-153.75,498.75a24.717,24.717,0,0,0-.75,6,19.252,19.252,0,0,0,5.63,13.5,37.378,37.378,0,0,0,15,9.37,50.387,50.387,0,0,0,16.87,3.38A32.526,32.526,0,0,0,5321.48,2975.13Zm139.87-456.37,84,282h-168Zm350,454.12q9.735-5.625,9.75-16.87v-504q0-11.25-9.75-16.5a45.275,45.275,0,0,0-21.75-5.25,45.906,45.906,0,0,0-21.37,5.25q-10.125,5.25-10.13,16.5v504q0,11.25,10.13,16.87a43.358,43.358,0,0,0,21.37,5.63A42.763,42.763,0,0,0,5811.35,2972.88Zm208,0q9.735-5.625,9.75-16.87V2572.76l195.75,377.25a70.2,70.2,0,0,0,16.88,20.25q10.125,8.265,22.12,8.25a42.763,42.763,0,0,0,21.75-5.63q9.735-5.625,9.75-16.87v-504q0-11.25-9.75-16.5a45.275,45.275,0,0,0-21.75-5.25,45.906,45.906,0,0,0-21.37,5.25q-10.125,5.25-10.13,16.5v383.25l-186-365.25a132.222,132.222,0,0,0-13.5-22.13,49.09,49.09,0,0,0-15-13.12q-8.265-4.5-20.25-4.5a48.774,48.774,0,0,0-21.37,4.87q-10.125,4.89-10.13,16.88v504q0,11.25,10.13,16.87a43.358,43.358,0,0,0,21.37,5.63A42.763,42.763,0,0,0,6019.35,2972.88Zm716.25,5.63q11.985,0,16.88-9a38.958,38.958,0,0,0,4.87-18.75q0-11.985-5.62-20.63a18.143,18.143,0,0,0-16.13-8.62H6503.1V2730.26h117q11.985,0,16.88-8.25a33.513,33.513,0,0,0,4.87-17.25,32.519,32.519,0,0,0-5.62-18.75q-5.625-8.25-16.13-8.25h-117v-190.5h232.5a17.947,17.947,0,0,0,16.13-9,37.414,37.414,0,0,0,5.62-20.25,38.987,38.987,0,0,0-4.87-18.75q-4.89-9-16.88-9h-267a36.081,36.081,0,0,0-19.5,5.62q-9,5.625-9,16.88v503.25q0,11.25,9,16.87a36.091,36.091,0,0,0,19.5,5.63h267Z"/>
  <path id="PERSPEKTIVE_Kopie_2" data-name="PERSPEKTIVE Kopie 2" class="cls-2" d="M3216.73,2146.33q9.735-5.625,9.75-16.88V1935.2h101.25q45.735,0,82.5-16.12,36.735-16.125,58.12-51.75t21.38-94.88v-6.75q0-59.235-21-94.5-21.015-35.235-57-51.37-36-16.125-81-16.13H3188.98q-11.25.765-18.38,6.75a18.8,18.8,0,0,0-7.12,15v504q0,11.25,10.12,16.88a43.385,43.385,0,0,0,21.38,5.62A42.782,42.782,0,0,0,3216.73,2146.33Zm9.75-485.63h101.25q46.485,0,72.75,25.88,26.235,25.875,26.25,80.62v9q0,54-26.25,80.25-26.265,26.265-72.75,26.25H3226.48v-222Zm671.5,491.25q11.985,0,16.87-9a38.83,38.83,0,0,0,4.88-18.75q0-11.985-5.63-20.62a18.147,18.147,0,0,0-16.12-8.63h-232.5V1903.7h117q11.985,0,16.87-8.25a33.4,33.4,0,0,0,4.88-17.25,32.55,32.55,0,0,0-5.63-18.75q-5.625-8.235-16.12-8.25h-117V1660.7h232.5a17.942,17.942,0,0,0,16.12-9,37.422,37.422,0,0,0,5.63-20.25,38.887,38.887,0,0,0-4.88-18.75q-4.89-9-16.87-9h-267a36.091,36.091,0,0,0-19.5,5.63q-9,5.625-9,16.87v503.25q0,11.25,9,16.88a36.081,36.081,0,0,0,19.5,5.62h267Zm436.12-3a41.559,41.559,0,0,0,14.25-12,25.828,25.828,0,0,0,5.63-15.75,18.236,18.236,0,0,0-.75-4.87,35.057,35.057,0,0,0-2.25-5.63l-111-210.75a164.885,164.885,0,0,0,57-23.62q25.485-16.875,40.12-46.88,14.625-29.985,14.63-75.75,0-56.985-22.5-89.62t-60.38-46.5q-37.875-13.875-83.62-13.88H4047.98a25.681,25.681,0,0,0-16.13,6.75,19.755,19.755,0,0,0-6.37,15v504q0,11.25,10.12,16.88a43.385,43.385,0,0,0,21.38,5.62,42.782,42.782,0,0,0,21.75-5.62q9.735-5.625,9.75-16.88v-220.5h87l112.5,219.75a78.649,78.649,0,0,0,12.37,17.25q7.125,7.515,16.13,7.5A37.676,37.676,0,0,0,4334.1,2148.95ZM4088.48,1660.7h96.75q46.485,0,75,22.13,28.485,22.125,28.5,75.37,0,53.265-28.5,75.75-28.515,22.5-75,22.5h-96.75V1660.7Zm594.25,480.38a130.949,130.949,0,0,0,58.12-51.75q21.375-34.875,21.38-88.88,0-43.485-13.5-72.37-13.5-28.86-35.63-46.88a235.564,235.564,0,0,0-48.37-30.37q-26.265-12.375-52.5-21.75a388.7,388.7,0,0,1-48-20.63q-21.765-11.25-35.25-28.5-13.5-17.235-13.5-44.25,0-28.485,13.87-45.75,13.875-17.235,37.5-24.75a166.735,166.735,0,0,1,50.63-7.5q32.235,0,52.12,7.13,19.86,7.14,31.88,14.25,11.985,7.14,20.25,7.12a19.755,19.755,0,0,0,15-6.37,43.191,43.191,0,0,0,9-14.25,39.96,39.96,0,0,0,3-13.88q0-12.735-12.75-22.12t-33-15.38a283.513,283.513,0,0,0-42.75-9,325.7,325.7,0,0,0-42.75-3,262.727,262.727,0,0,0-56.63,6.38,165.563,165.563,0,0,0-53.62,22.12q-24.75,15.75-39.75,42.75t-15,68.25q0,39.015,13.5,64.5a121.737,121.737,0,0,0,35.25,41.63,220.208,220.208,0,0,0,48.37,27q26.61,10.875,52.5,21.37a331.7,331.7,0,0,1,48,24,112.609,112.609,0,0,1,35.63,33.75q13.5,20.25,13.5,52.5,0,31.5-13.13,52.13a79.724,79.724,0,0,1-36.37,30.75q-23.265,10.125-54.75,10.12-33.75,0-54.75-9t-34.13-21.37q-13.125-12.375-21.75-21.38t-17.62-9c-4.5,0-8.89,1.88-13.13,5.63a46.537,46.537,0,0,0-10.5,13.5,33.022,33.022,0,0,0-4.12,15.37q0,15.75,19.5,35.63t55.5,34.5q36,14.625,84,14.62T4682.73,2141.08Zm252,5.25q9.735-5.625,9.75-16.88V1935.2h101.25q45.735,0,82.5-16.12,36.735-16.125,58.12-51.75t21.38-94.88v-6.75q0-59.235-21-94.5-21.015-35.235-57-51.37t-81-16.13H4906.98q-11.25.765-18.38,6.75a18.8,18.8,0,0,0-7.12,15v504q0,11.25,10.12,16.88a43.385,43.385,0,0,0,21.38,5.62A42.782,42.782,0,0,0,4934.73,2146.33Zm9.75-485.63h101.25q46.485,0,72.75,25.88,26.235,25.875,26.25,80.62v9q0,54-26.25,80.25-26.265,26.265-72.75,26.25H4944.48v-222Zm671.5,491.25q11.985,0,16.87-9a38.83,38.83,0,0,0,4.88-18.75q0-11.985-5.63-20.62a18.147,18.147,0,0,0-16.12-8.63h-232.5V1903.7h117q11.985,0,16.87-8.25a33.4,33.4,0,0,0,4.88-17.25,32.55,32.55,0,0,0-5.63-18.75q-5.625-8.235-16.12-8.25h-117V1660.7h232.5a17.942,17.942,0,0,0,16.12-9,37.422,37.422,0,0,0,5.63-20.25,38.887,38.887,0,0,0-4.88-18.75q-4.89-9-16.87-9h-267a36.091,36.091,0,0,0-19.5,5.63q-9,5.625-9,16.87v503.25q0,11.25,9,16.88a36.081,36.081,0,0,0,19.5,5.62h267Zm180.75-5.62q9.735-5.625,9.75-16.88V1963.7l56.25-69.75,164.25,246.75a27.494,27.494,0,0,0,10.5,9.75,26.564,26.564,0,0,0,12,3,37.038,37.038,0,0,0,18-4.5,40.763,40.763,0,0,0,13.5-11.62,25.467,25.467,0,0,0,5.25-15.38,19.109,19.109,0,0,0-3.75-11.25l-177.75-270,153-191.25a13.135,13.135,0,0,0,3.75-6.75,35.387,35.387,0,0,0,.75-6.75,25.5,25.5,0,0,0-5.25-15.37,45.207,45.207,0,0,0-13.5-12,32.255,32.255,0,0,0-16.5-4.88q-12.015,0-18.75,9l-201.75,261V1625.45q0-11.25-9.75-16.5a45.3,45.3,0,0,0-21.75-5.25,45.945,45.945,0,0,0-21.38,5.25q-10.125,5.265-10.12,16.5v504q0,11.25,10.12,16.88a43.385,43.385,0,0,0,21.38,5.62A42.782,42.782,0,0,0,5796.73,2146.33Zm535,0q9.735-5.625,9.75-16.88V1662.2h121.5q11.25,0,16.5-9.37a41.616,41.616,0,0,0,5.25-20.63,38.155,38.155,0,0,0-5.25-19.5q-5.265-9-16.5-9h-306q-11.25,0-16.5,9a37.961,37.961,0,0,0-5.25,19.5,36.87,36.87,0,0,0,6,21q5.985,9,15.75,9h121.5v467.25q0,11.25,9.75,16.88A44.9,44.9,0,0,0,6331.73,2146.33Zm306,0q9.735-5.625,9.75-16.88v-504q0-11.25-9.75-16.5a45.3,45.3,0,0,0-21.75-5.25,45.945,45.945,0,0,0-21.38,5.25q-10.125,5.265-10.12,16.5v504q0,11.25,10.12,16.88a43.385,43.385,0,0,0,21.38,5.62A42.782,42.782,0,0,0,6637.73,2146.33Zm331.75,4.5q11.25-5.625,14.25-16.13l153-498.75a11.962,11.962,0,0,1,.37-3,10.154,10.154,0,0,0,.38-2.25,18.3,18.3,0,0,0-6-13.87,49.83,49.83,0,0,0-15-9.38,46.665,46.665,0,0,0-18-3.75,28.558,28.558,0,0,0-14.25,3.38q-6.015,3.375-8.25,10.87l-131.25,445.5-132-445.5a17.393,17.393,0,0,0-8.63-10.87,30.8,30.8,0,0,0-14.62-3.38,49.049,49.049,0,0,0-17.25,3.38,41.471,41.471,0,0,0-15,9.37q-6.015,6.015-6,13.5a24.06,24.06,0,0,0,.75,6l153.75,498.75q3.735,10.515,15,16.13a52.9,52.9,0,0,0,24,5.62A54.556,54.556,0,0,0,6969.48,2150.83Zm566.5,1.12q11.985,0,16.87-9a38.83,38.83,0,0,0,4.88-18.75q0-11.985-5.63-20.62a18.147,18.147,0,0,0-16.12-8.63h-232.5V1903.7h117q11.985,0,16.87-8.25a33.4,33.4,0,0,0,4.88-17.25,32.55,32.55,0,0,0-5.63-18.75q-5.625-8.235-16.12-8.25h-117V1660.7h232.5a17.942,17.942,0,0,0,16.12-9,37.422,37.422,0,0,0,5.63-20.25,38.887,38.887,0,0,0-4.88-18.75q-4.89-9-16.87-9h-267a36.091,36.091,0,0,0-19.5,5.63q-9,5.625-9,16.87v503.25q0,11.25,9,16.88a36.081,36.081,0,0,0,19.5,5.62h267Z"/>
  <circle class="cls-3" cx="1589" cy="2201" r="1082"/>
  <path class="cls-1" d="M426,3468s1070.15-909.96,808-1360c-307.611-528.08-912.714,86.12-910,79,122.752-322.03,455.1-717.52,1359-640,594.76,51.01,871-673,871-673S2561.59,2745.11,426,3468Z"/>
  <path class="cls-1" d="M1619.6,863.261c127.67-26.85,258.14,79.673,291.42,237.929s-43.23,308.31-170.9,335.16-258.15-79.68-291.43-237.93S1491.92,890.111,1619.6,863.261Z"/>
  <path class="cls-2" d="M2322,467c42-27,178-50,219-247,46.5,126.5,114.51,211.5,245,242-223.5,71.5-213.5,248-227,248S2522.19,535.121,2322,467Z"/>
</svg>
