<svg xmlns="http://www.w3.org/2000/svg" width="3181" height="3502" viewBox="0 0 3181 3502">
  <defs>
    <style>
      .cls-1, .cls-3 {
        fill: #099cc8;
      }

      .cls-2 {
        fill: #fec608;
      }

      .cls-2, .cls-3 {
        fill-rule: evenodd;
      }
    </style>
  </defs>
  <circle class="cls-1" cx="1569" cy="2043" r="1082"/>
  <path class="cls-2" d="M406,3310s1070.15-909.96,808-1360c-307.611-528.08-912.714,86.12-910,79,122.752-322.03,455.1-717.52,1359-640,594.76,51.01,871-673,871-673S2541.59,2587.11,406,3310Z"/>
  <path class="cls-2" d="M1599.6,705.261c127.67-26.85,258.14,79.673,291.42,237.926s-43.23,308.313-170.9,335.163-258.15-79.68-291.43-237.93S1471.92,732.111,1599.6,705.261Z"/>
  <path class="cls-3" d="M2302,309c42-27,178-50,219-247,46.5,126.5,114.51,211.5,245,242-223.5,71.5-213.5,248-227,248S2502.19,377.121,2302,309Z"/>
</svg>
